
        <svg width="400px" height="400px" viewBox="0 0 400 400" version="1.1" xmlns="http://www.w3.org/2000/svg" xmlns:xlink="http://www.w3.org/1999/xlink">
          <defs>
            <linearGradient x1="0%" y1="50%" x2="100%" y2="50%" id="shadeGradientLight">
              <stop stop-color="#36354B" offset="0%"></stop>
              <stop stop-color="#505064" offset="16.67%"></stop>
              <stop stop-color="#6B6A7C" offset="33.33%"></stop>
              <stop stop-color="#868595" offset="50%"></stop>
              <stop stop-color="#A19FAD" offset="66.67%"></stop>
              <stop stop-color="#BBBAC6" offset="83.33%"></stop>
              <stop stop-color="#D6D4DE" offset="100%"></stop>
            </linearGradient>
            <linearGradient x1="0%" y1="50%" x2="100%" y2="50%" id="shadeGradientDark">
              <stop stop-color="#36354B" offset="0%"></stop>
              <stop stop-color="#505064" offset="16.67%"></stop>
              <stop stop-color="#6B6A7C" offset="33.33%"></stop>
              <stop stop-color="#868595" offset="50%"></stop>
              <stop stop-color="#A19FAD" offset="66.67%"></stop>
              <stop stop-color="#BBBAC6" offset="83.33%"></stop>
              <stop stop-color="#D6D4DE" offset="100%"></stop>
            </linearGradient>
          </defs>
          <g id="light">
            <rect fill="#1B1B33" x="0" y="0" width="400" height="200"></rect>
            <rect fill="#D6D4DE" x="28" y="28" width="74" height="37"></rect>
            <rect fill="#FF0A82" x="118" y="28" width="74" height="37"></rect>
            <rect fill="#FF0000" x="208" y="28" width="74" height="37"></rect>
            <rect fill="#AB7FFF" x="298" y="28" width="74" height="37"></rect>
            <rect fill="#589FFF" x="28" y="81" width="74" height="37"></rect>
            <rect fill="#874DF6" x="118" y="81" width="74" height="37"></rect>
            <rect fill="#EFD387" x="208" y="81" width="74" height="37"></rect>
            <rect fill="#6D6DB5" x="298" y="81" width="74" height="37"></rect>
            <rect fill="url(#shadeGradientLight)" x="28" y="134" width="344" height="37"></rect>
          </g>
          <g id="dark" transform="translate(0.000000, 200.000000)">
            <rect fill="#1B1B33" x="0" y="0" width="400" height="200"></rect>
            <rect fill="#D6D4DE" x="28" y="28" width="74" height="37"></rect>
            <rect fill="#FF0A82" x="118" y="28" width="74" height="37"></rect>
            <rect fill="#FF0000" x="208" y="28" width="74" height="37"></rect>
            <rect fill="#AB7FFF" x="298" y="28" width="74" height="37"></rect>
            <rect fill="#589FFF" x="28" y="81" width="74" height="37"></rect>
            <rect fill="#874DF6" x="118" y="81" width="74" height="37"></rect>
            <rect fill="#EFD387" x="208" y="81" width="74" height="37"></rect>
            <rect fill="#6D6DB5" x="298" y="81" width="74" height="37"></rect>
            <rect fill="url(#shadeGradientDark)" x="28" y="134" width="344" height="37"></rect>
          </g>
        </svg>
      